<mxfile host="app.diagrams.net" agent="Mozilla/5.0 (Windows NT 10.0; Win64; x64; rv:133.0) Gecko/20100101 Firefox/133.0" version="25.0.3">
  <diagram name="Seite-1" id="OiyQYx4CDayECdPJGrxK">
    <mxGraphModel dx="875" dy="472" grid="1" gridSize="10" guides="1" tooltips="1" connect="1" arrows="1" fold="1" page="1" pageScale="1" pageWidth="750" pageHeight="600" math="0" shadow="0">
      <root>
        <mxCell id="0" />
        <mxCell id="1" parent="0" />
        <mxCell id="zC0twBDkTGlBig3KOCTz-3" value="" style="edgeStyle=orthogonalEdgeStyle;rounded=0;orthogonalLoop=1;jettySize=auto;html=1;" edge="1" parent="1" source="zC0twBDkTGlBig3KOCTz-1" target="zC0twBDkTGlBig3KOCTz-2">
          <mxGeometry relative="1" as="geometry">
            <Array as="points">
              <mxPoint x="110" y="220" />
              <mxPoint x="110" y="140" />
            </Array>
          </mxGeometry>
        </mxCell>
        <mxCell id="zC0twBDkTGlBig3KOCTz-6" style="edgeStyle=orthogonalEdgeStyle;rounded=0;orthogonalLoop=1;jettySize=auto;html=1;entryX=0;entryY=0.5;entryDx=0;entryDy=0;" edge="1" parent="1" source="zC0twBDkTGlBig3KOCTz-1" target="zC0twBDkTGlBig3KOCTz-4">
          <mxGeometry relative="1" as="geometry" />
        </mxCell>
        <mxCell id="zC0twBDkTGlBig3KOCTz-8" style="edgeStyle=orthogonalEdgeStyle;rounded=0;orthogonalLoop=1;jettySize=auto;html=1;entryX=0;entryY=0.5;entryDx=0;entryDy=0;" edge="1" parent="1" source="zC0twBDkTGlBig3KOCTz-1" target="zC0twBDkTGlBig3KOCTz-7">
          <mxGeometry relative="1" as="geometry">
            <Array as="points">
              <mxPoint x="110" y="220" />
              <mxPoint x="110" y="360" />
            </Array>
          </mxGeometry>
        </mxCell>
        <mxCell id="zC0twBDkTGlBig3KOCTz-1" value="&lt;div&gt;Markler&lt;/div&gt;" style="shape=umlActor;verticalLabelPosition=bottom;verticalAlign=top;html=1;outlineConnect=0;" vertex="1" parent="1">
          <mxGeometry x="40" y="190" width="30" height="60" as="geometry" />
        </mxCell>
        <mxCell id="zC0twBDkTGlBig3KOCTz-2" value="Raum messen" style="whiteSpace=wrap;html=1;verticalAlign=middle;glass=0;shadow=0;rounded=0;" vertex="1" parent="1">
          <mxGeometry x="150" y="110" width="120" height="60" as="geometry" />
        </mxCell>
        <mxCell id="zC0twBDkTGlBig3KOCTz-18" style="edgeStyle=orthogonalEdgeStyle;rounded=0;orthogonalLoop=1;jettySize=auto;html=1;entryX=0.5;entryY=0;entryDx=0;entryDy=0;endArrow=block;endFill=0;" edge="1" parent="1" source="zC0twBDkTGlBig3KOCTz-4" target="zC0twBDkTGlBig3KOCTz-28">
          <mxGeometry relative="1" as="geometry" />
        </mxCell>
        <mxCell id="zC0twBDkTGlBig3KOCTz-20" style="edgeStyle=orthogonalEdgeStyle;rounded=0;orthogonalLoop=1;jettySize=auto;html=1;entryX=0;entryY=0.5;entryDx=0;entryDy=0;endArrow=block;endFill=0;" edge="1" parent="1" source="zC0twBDkTGlBig3KOCTz-4" target="zC0twBDkTGlBig3KOCTz-25">
          <mxGeometry relative="1" as="geometry" />
        </mxCell>
        <mxCell id="zC0twBDkTGlBig3KOCTz-4" value="Programm bedienen" style="whiteSpace=wrap;html=1;verticalAlign=middle;glass=0;shadow=0;rounded=0;" vertex="1" parent="1">
          <mxGeometry x="150" y="190" width="120" height="60" as="geometry" />
        </mxCell>
        <mxCell id="zC0twBDkTGlBig3KOCTz-7" value="Ausgabe auslesen" style="whiteSpace=wrap;html=1;verticalAlign=middle;glass=0;shadow=0;rounded=0;" vertex="1" parent="1">
          <mxGeometry x="150" y="330" width="120" height="60" as="geometry" />
        </mxCell>
        <mxCell id="zC0twBDkTGlBig3KOCTz-11" style="edgeStyle=orthogonalEdgeStyle;rounded=0;orthogonalLoop=1;jettySize=auto;html=1;entryX=1;entryY=0.5;entryDx=0;entryDy=0;" edge="1" parent="1" source="zC0twBDkTGlBig3KOCTz-9" target="zC0twBDkTGlBig3KOCTz-10">
          <mxGeometry relative="1" as="geometry" />
        </mxCell>
        <mxCell id="zC0twBDkTGlBig3KOCTz-13" style="edgeStyle=orthogonalEdgeStyle;rounded=0;orthogonalLoop=1;jettySize=auto;html=1;entryX=1;entryY=0.5;entryDx=0;entryDy=0;" edge="1" parent="1" source="zC0twBDkTGlBig3KOCTz-9" target="zC0twBDkTGlBig3KOCTz-12">
          <mxGeometry relative="1" as="geometry" />
        </mxCell>
        <mxCell id="zC0twBDkTGlBig3KOCTz-15" style="edgeStyle=orthogonalEdgeStyle;rounded=0;orthogonalLoop=1;jettySize=auto;html=1;entryX=1;entryY=0.5;entryDx=0;entryDy=0;" edge="1" parent="1" source="zC0twBDkTGlBig3KOCTz-9" target="zC0twBDkTGlBig3KOCTz-14">
          <mxGeometry relative="1" as="geometry" />
        </mxCell>
        <mxCell id="zC0twBDkTGlBig3KOCTz-17" style="edgeStyle=orthogonalEdgeStyle;rounded=0;orthogonalLoop=1;jettySize=auto;html=1;entryX=1;entryY=0.5;entryDx=0;entryDy=0;" edge="1" parent="1" source="zC0twBDkTGlBig3KOCTz-9" target="zC0twBDkTGlBig3KOCTz-16">
          <mxGeometry relative="1" as="geometry" />
        </mxCell>
        <mxCell id="zC0twBDkTGlBig3KOCTz-9" value="Programm" style="shape=umlActor;verticalLabelPosition=bottom;verticalAlign=top;html=1;outlineConnect=0;" vertex="1" parent="1">
          <mxGeometry x="670" y="190" width="30" height="60" as="geometry" />
        </mxCell>
        <mxCell id="zC0twBDkTGlBig3KOCTz-10" value="Raum messen" style="whiteSpace=wrap;html=1;verticalAlign=middle;glass=0;shadow=0;rounded=0;" vertex="1" parent="1">
          <mxGeometry x="470" y="110" width="120" height="60" as="geometry" />
        </mxCell>
        <mxCell id="zC0twBDkTGlBig3KOCTz-12" value="Raumgröße ausrechnen" style="whiteSpace=wrap;html=1;verticalAlign=middle;glass=0;shadow=0;rounded=0;" vertex="1" parent="1">
          <mxGeometry x="470" y="190" width="120" height="60" as="geometry" />
        </mxCell>
        <mxCell id="zC0twBDkTGlBig3KOCTz-14" value="Gesamtfläche berechnen" style="whiteSpace=wrap;html=1;verticalAlign=middle;glass=0;shadow=0;rounded=0;" vertex="1" parent="1">
          <mxGeometry x="470" y="330" width="120" height="60" as="geometry" />
        </mxCell>
        <mxCell id="zC0twBDkTGlBig3KOCTz-16" value="Ausgabe bereitstellen" style="whiteSpace=wrap;html=1;verticalAlign=middle;glass=0;shadow=0;rounded=0;" vertex="1" parent="1">
          <mxGeometry x="470" y="430" width="120" height="60" as="geometry" />
        </mxCell>
        <mxCell id="zC0twBDkTGlBig3KOCTz-27" style="edgeStyle=orthogonalEdgeStyle;rounded=0;orthogonalLoop=1;jettySize=auto;html=1;entryX=0.5;entryY=0;entryDx=0;entryDy=0;endArrow=block;endFill=0;" edge="1" parent="1" source="zC0twBDkTGlBig3KOCTz-22" target="zC0twBDkTGlBig3KOCTz-25">
          <mxGeometry relative="1" as="geometry" />
        </mxCell>
        <mxCell id="zC0twBDkTGlBig3KOCTz-22" value="Nur wenn ausgelöst" style="whiteSpace=wrap;html=1;verticalAlign=middle;glass=0;shadow=0;rounded=0;" vertex="1" parent="1">
          <mxGeometry x="310" y="120" width="120" height="60" as="geometry" />
        </mxCell>
        <mxCell id="zC0twBDkTGlBig3KOCTz-26" style="edgeStyle=orthogonalEdgeStyle;rounded=0;orthogonalLoop=1;jettySize=auto;html=1;exitX=1;exitY=0.5;exitDx=0;exitDy=0;entryX=0;entryY=0.5;entryDx=0;entryDy=0;endArrow=block;endFill=0;" edge="1" parent="1" source="zC0twBDkTGlBig3KOCTz-25" target="zC0twBDkTGlBig3KOCTz-12">
          <mxGeometry relative="1" as="geometry" />
        </mxCell>
        <mxCell id="zC0twBDkTGlBig3KOCTz-25" value="&amp;lt;&amp;lt;extend&amp;gt;&amp;gt;" style="shape=step;perimeter=stepPerimeter;whiteSpace=wrap;html=1;fixedSize=1;size=3.5;" vertex="1" parent="1">
          <mxGeometry x="316.5" y="210" width="107" height="20" as="geometry" />
        </mxCell>
        <mxCell id="zC0twBDkTGlBig3KOCTz-29" style="edgeStyle=orthogonalEdgeStyle;rounded=0;orthogonalLoop=1;jettySize=auto;html=1;entryX=0.5;entryY=0;entryDx=0;entryDy=0;endArrow=classic;endFill=0;" edge="1" parent="1" source="zC0twBDkTGlBig3KOCTz-28" target="zC0twBDkTGlBig3KOCTz-7">
          <mxGeometry relative="1" as="geometry" />
        </mxCell>
        <mxCell id="zC0twBDkTGlBig3KOCTz-28" value="&amp;lt;&amp;lt;include&amp;gt;&amp;gt;" style="shape=step;perimeter=stepPerimeter;whiteSpace=wrap;html=1;fixedSize=1;size=3.5;" vertex="1" parent="1">
          <mxGeometry x="156.5" y="280" width="107" height="20" as="geometry" />
        </mxCell>
      </root>
    </mxGraphModel>
  </diagram>
</mxfile>
